<svg xmlns="http://www.w3.org/2000/svg" viewBox="0 0 512 512" width="512" height="512">
  <rect width="512" height="512" rx="96" fill="#f5f0e8"/>
  <path d="M256 160c-22 0-42 22-42 52 0 30 20 52 42 52s42-22 42-52c0-30-20-52-42-52zm-74 86c-10 0-20 10-20 20s10 20 20 20 20-10 20-20-10-20-20-20zm148 0c-10 0-20 10-20 20s10 20 20 20 20-10 20-20-10-20-20-20zm-112 64c-10 0-20 10-20 20s10 20 20 20 20-10 20-20-10-20-20-20zm74 0c-10 0-20 10-20 20s10 20 20 20 20-10 20-20-10-20-20-20z" fill="#4CAF50"/>
</svg>
